<?xml version="1.0" standalone="no"?>
<!DOCTYPE svg PUBLIC "-//W3C//DTD SVG 20010904//EN"
 "http://www.w3.org/TR/2001/REC-SVG-20010904/DTD/svg10.dtd">
<svg version="1.0" xmlns="http://www.w3.org/2000/svg"
 width="202.000000pt" height="227.000000pt" viewBox="0 0 202.000000 227.000000"
 preserveAspectRatio="xMidYMid meet">

<g transform="translate(0.000000,227.000000) scale(0.100000,-0.100000)"
fill="#000000" stroke="none">
<path d="M0 1135 l0 -1135 1010 0 1010 0 0 1135 0 1135 -1010 0 -1010 0 0
-1135z m1116 874 c185 -32 376 -134 496 -263 93 -101 174 -261 203 -400 78
-383 -109 -762 -459 -931 -137 -66 -196 -79 -366 -80 -171 0 -250 18 -390 90
-246 128 -404 351 -446 629 -43 288 74 592 297 770 196 156 442 225 665 185z"/>
<path d="M843 1970 c-261 -47 -504 -245 -602 -491 -178 -447 55 -937 513
-1078 273 -84 577 -14 783 182 128 122 190 225 234 392 69 257 -2 541 -185
741 -97 107 -226 188 -371 234 -80 25 -283 36 -372 20z m-63 -560 l0 -40 -55
0 -55 0 0 40 0 40 55 0 55 0 0 -40z m168 -132 c-3 -155 -5 -178 -25 -219 -31
-61 -78 -107 -138 -135 -46 -22 -63 -24 -222 -24 l-173 0 0 35 0 35 143 0
c177 0 229 13 280 69 49 54 57 92 57 264 l0 147 41 0 41 0 -4 -172z m558 156
c18 -9 44 -33 56 -53 21 -32 23 -51 26 -182 4 -164 -5 -214 -48 -262 l-28 -32
-241 -3 -241 -3 0 155 0 156 40 0 40 0 0 -120 0 -120 174 0 c236 0 221 -14
221 205 0 153 -2 168 -19 181 -16 11 -65 14 -238 14 l-218 0 0 40 0 40 221 0
c182 0 227 -3 255 -16z"/>
</g>
</svg>
